<svg xmlns="http://www.w3.org/2000/svg" xmlns:xlink="http://www.w3.org/1999/xlink" viewBox="0 0 750 500"><defs><clipPath id="freepik--clip-path--inject-2"><path d="M409.45,256.42a34.65,34.65,0,1,0-69.29,0v69.29a34.65,34.65,0,0,0,69.29,0Z" style="fill:#F9F5F1;stroke:#263238;stroke-miterlimit:10;stroke-width:0.9696422508675577px"></path></clipPath><clipPath id="freepik--clip-path-2--inject-2"><path d="M615.36,393.44s-.13,20.53-2.3,23.91c-2.59,4-4.43,9.59,2.43,11.11s10.94,9.09,19.11,9.59,9-3,5.44-5.81-12.6-10.6-13.79-14.39,1.12-24.41,1.12-24.41Z" style="fill:#fff;stroke:#263238;stroke-linecap:round;stroke-linejoin:round;stroke-width:0.9325674165897908px"></path></clipPath><clipPath id="freepik--clip-path-3--inject-2"><path d="M569.23,386s-9,18.78-12.4,21.07c-4.11,2.74-8.19,7.15-2.56,11.08s6.13,12.39,13.4,15.88,9.54.54,7.49-3.31-7-14.39-6.45-18.31S580.33,390,580.33,390Z" style="fill:#fff;stroke:#263238;stroke-linecap:round;stroke-linejoin:round;stroke-width:0.9325674165897908px"></path></clipPath><clipPath id="freepik--clip-path-4--inject-2"><path d="M636.62,212.89l-14,13,.26-19.48A17.45,17.45,0,0,0,615,191.54l.53,51.27c13.75.87,26-26.11,26-26.11A7.51,7.51,0,0,0,636.62,212.89Z" style="fill:#fff;stroke:#263238;stroke-linecap:round;stroke-linejoin:round;stroke-width:0.9325674165897908px"></path></clipPath><clipPath id="freepik--clip-path-5--inject-2"><path d="M191.8,257.64s-1.79-11.77-5.72-28.72-11.61-18.28-11.61-18.28l-.07,0c-10-4.3-36-6.62-36-6.62h-1.2s-26.06,2.32-36,6.62l-.07,0S93.38,212,89.45,228.92s-5.73,28.72-5.73,28.72-7.1,1.92-19.88,18a42.49,42.49,0,0,0-5.09,8.26h0s9.82-3.23,16.7,1.72c0,0,22.54-9.56,23.67-19.64,0-.36.09-.76.14-1.19.64,15.3,1.19,28.08,1.19,28.08h74.62s.56-12.78,1.2-28.08c0,.43.09.83.13,1.19,1.14,10.08,26.09,21.38,26.09,21.38,6.84-10.52,16.77-4.71,16.77-4.71Z" style="fill:#fff;stroke:#263238;stroke-linecap:round;stroke-linejoin:round;stroke-width:0.8738100494572422px"></path></clipPath><clipPath id="freepik--clip-path-6--inject-2"><path d="M151.77,205.64c-1.21,6.06-7.07,8.25-14.13,8.25s-12.9-2.18-14.13-8.22l.28,0a3.65,3.65,0,0,0,3.06-2.78A2.79,2.79,0,0,0,127,202v-7.11h21.6V202a3.53,3.53,0,0,0,.24,1.3h0a3.67,3.67,0,0,0,2.93,2.34Z" style="fill:#fff;stroke:#263238;stroke-linecap:round;stroke-linejoin:round;stroke-width:0.8738100494572422px"></path></clipPath></defs><g id="freepik--Podcast--inject-2"><path d="M402,216.08a48.66,48.66,0,0,0-69,65.17" style="fill:none;stroke:#263238;stroke-linecap:round;stroke-linejoin:round;stroke-width:0.9696422508675577px"></path><path d="M419.3,236.72a49.83,49.83,0,0,0-3.28-6.17" style="fill:none;stroke:#263238;stroke-linecap:round;stroke-linejoin:round;stroke-width:0.9696422508675577px"></path><path d="M415.15,283.62a48.82,48.82,0,0,0,7.28-37.16" style="fill:none;stroke:#263238;stroke-linecap:round;stroke-linejoin:round;stroke-width:0.9696422508675577px"></path><path d="M326.51,208.12A69.67,69.67,0,0,0,317.66,219" style="fill:none;stroke:#263238;stroke-linecap:round;stroke-linejoin:round;stroke-width:0.9696422508675577px"></path><path d="M428.82,298.23a68.31,68.31,0,0,0-89.92-99.92" style="fill:none;stroke:#263238;stroke-linecap:round;stroke-linejoin:round;stroke-width:0.9696422508675577px"></path><path d="M320.68,298.23a68.48,68.48,0,0,1-11.12-62.46" style="fill:none;stroke:#263238;stroke-linecap:round;stroke-linejoin:round;stroke-width:0.9696422508675577px"></path><path d="M299.27,315.5a96.19,96.19,0,0,0,14.38,14.78" style="fill:none;stroke:#263238;stroke-linecap:round;stroke-linejoin:round;stroke-width:0.9696422508675577px"></path><path d="M429.06,177.33A95.93,95.93,0,0,0,286.57,294" style="fill:none;stroke:#263238;stroke-linecap:round;stroke-linejoin:round;stroke-width:0.9696422508675577px"></path><path d="M464.26,221.78a95.8,95.8,0,0,0-9.87-18.89" style="fill:none;stroke:#263238;stroke-linecap:round;stroke-linejoin:round;stroke-width:0.9696422508675577px"></path><path d="M441.1,325.71a95.6,95.6,0,0,0,29.61-69.29" style="fill:none;stroke:#263238;stroke-linecap:round;stroke-linejoin:round;stroke-width:0.9696422508675577px"></path><path d="M240.8,256.42A134.68,134.68,0,0,0,353,389.21" style="fill:none;stroke:#263238;stroke-linecap:round;stroke-linejoin:round;stroke-width:0.9696422508675577px"></path><path d="M483,336.55A134.71,134.71,0,0,0,343.63,125.4" style="fill:none;stroke:#263238;stroke-linecap:round;stroke-linejoin:round;stroke-width:0.9696422508675577px"></path><path d="M240.8,256.42A134.7,134.7,0,0,1,343.67,125.54" style="fill:none;stroke:#263238;stroke-linecap:round;stroke-linejoin:round;stroke-width:0.9696422508675577px"></path><path d="M454.39,365q5.13-3.77,9.87-8" style="fill:none;stroke:#263238;stroke-linecap:round;stroke-linejoin:round;stroke-width:0.9696422508675577px"></path><path d="M397.21,389.21a133.73,133.73,0,0,0,43.59-15.4" style="fill:none;stroke:#263238;stroke-linecap:round;stroke-linejoin:round;stroke-width:0.9696422508675577px"></path><path d="M374.81,377.15a51.5,51.5,0,0,1-51.44-51.44V308.39a2.8,2.8,0,0,1,2.8-2.8h7a2.8,2.8,0,0,1,0,5.6H329v14.52a45.84,45.84,0,1,0,91.68,0V311.19h-4.2a2.8,2.8,0,1,1,0-5.6h7a2.8,2.8,0,0,1,2.8,2.8v17.32A51.5,51.5,0,0,1,374.81,377.15Z" style="fill:#263238"></path><path d="M429.05,420.19v-5.6a5.59,5.59,0,0,0-5.6-5.6H326.17a5.59,5.59,0,0,0-5.6,5.6v5.6Z" style="fill:#263238"></path><path d="M380.27,415.81a5.43,5.43,0,0,0,.14-1.22V374.35h-11.2v40.24a5.43,5.43,0,0,0,.14,1.22Z" style="fill:#263238"></path><path d="M409.45,256.42a34.65,34.65,0,1,0-69.29,0v69.29a34.65,34.65,0,0,0,69.29,0Z" style="fill:none;stroke:#263238;stroke-linecap:round;stroke-linejoin:round;stroke-width:0.9696422508675577px"></path><path d="M409.45,256.42a34.65,34.65,0,1,0-69.29,0v69.29a34.65,34.65,0,0,0,69.29,0Z" style="fill:#F9F5F1"></path><g style="clip-path:url(#freepik--clip-path--inject-2)"><path d="M360.46,260.07h-20.3v8.4h20.3a4.2,4.2,0,1,0,0-8.4Z" style="fill:#fff"></path><path d="M409.45,260.07H389.16a4.2,4.2,0,1,0,0,8.4h20.29Z" style="fill:#fff"></path><path d="M374.81,260.07a4.2,4.2,0,1,0,4.2,4.2A4.2,4.2,0,0,0,374.81,260.07Z" style="fill:#fff"></path><path d="M374.81,277.05a4.2,4.2,0,1,0,4.2,4.2A4.2,4.2,0,0,0,374.81,277.05Z" style="fill:#fff"></path><path d="M374.81,294a4.2,4.2,0,1,0,4.2,4.2A4.2,4.2,0,0,0,374.81,294Z" style="fill:#fff"></path><path d="M360.46,277.05h-20.3v8.4h20.3a4.2,4.2,0,1,0,0-8.4Z" style="fill:#fff"></path><path d="M409.45,277.05H389.16a4.2,4.2,0,0,0,0,8.4h20.29Z" style="fill:#fff"></path><path d="M360.46,294h-20.3v8.4h20.3a4.2,4.2,0,0,0,0-8.4Z" style="fill:#fff"></path><path d="M409.45,294H389.16a4.2,4.2,0,0,0,0,8.4h20.29Z" style="fill:#fff"></path></g><path d="M409.45,256.42a34.65,34.65,0,1,0-69.29,0v69.29a34.65,34.65,0,0,0,69.29,0Z" style="fill:none;stroke:#263238;stroke-miterlimit:10;stroke-width:0.9696422508675577px"></path><path d="M340.16,325.71a34.65,34.65,0,0,0,69.29,0Z" style="fill:#263238;stroke:#263238;stroke-miterlimit:10;stroke-width:0.9696422508675577px"></path></g><g id="freepik--character-2--inject-2"><circle cx="590.35" cy="229.93" r="110.78" transform="translate(10.32 484.78) rotate(-45)" style="fill:#F9F5F1"></circle><rect x="490.01" y="184.09" width="91.51" height="91.51" rx="7.06" style="fill:#fff"></rect><g style="opacity:0.1"><path d="M498.64,275.61h30.54l19.46-91.52H516.86l-19.43,91.42A8.12,8.12,0,0,0,498.64,275.61Z"></path><polygon points="561.58 184.09 553.94 184.09 534.49 275.61 542.13 275.61 561.58 184.09"></polygon></g><path d="M572.89,277.89H498.64A10.93,10.93,0,0,1,487.73,267V192.72a10.93,10.93,0,0,1,10.91-10.91h74.25a10.93,10.93,0,0,1,10.92,10.91V267A10.93,10.93,0,0,1,572.89,277.89Zm-74.25-91.51a6.35,6.35,0,0,0-6.35,6.34V267a6.36,6.36,0,0,0,6.35,6.36h74.25a6.35,6.35,0,0,0,6.35-6.36V192.72a6.34,6.34,0,0,0-6.35-6.34Z" style="fill:#fff;stroke:#263238;stroke-miterlimit:10;stroke-width:0.9325674165897908px"></path><rect x="597.64" y="184.09" width="91.51" height="91.51" rx="7.06" style="fill:#fff"></rect><g style="opacity:0.1"><path d="M614.26,275.61H644.8l19.45-91.52H632.48L613,275.51A8.25,8.25,0,0,0,614.26,275.61Z"></path><polygon points="677.2 184.09 669.56 184.09 650.1 275.61 657.75 275.61 677.2 184.09"></polygon></g><path d="M680.52,277.89H606.27A10.93,10.93,0,0,1,595.36,267V192.72a10.93,10.93,0,0,1,10.91-10.91h74.25a10.93,10.93,0,0,1,10.92,10.91V267A10.93,10.93,0,0,1,680.52,277.89Zm-74.25-91.51a6.35,6.35,0,0,0-6.35,6.34V267a6.36,6.36,0,0,0,6.35,6.36h74.25a6.35,6.35,0,0,0,6.35-6.36V192.72a6.34,6.34,0,0,0-6.35-6.34Z" style="fill:#fff;stroke:#263238;stroke-miterlimit:10;stroke-width:0.9325674165897908px"></path><ellipse cx="593.34" cy="436.14" rx="49.83" ry="7.33" style="fill:#F9F5F1"></ellipse><path d="M615.36,393.44s-.13,20.53-2.3,23.91c-2.59,4-4.43,9.59,2.43,11.11s10.94,9.09,19.11,9.59,9-3,5.44-5.81-12.6-10.6-13.79-14.39,1.12-24.41,1.12-24.41Z" style="fill:#fff"></path><g style="clip-path:url(#freepik--clip-path-2--inject-2)"><path d="M626.28,405.36c.44-6.05,1.09-11.92,1.09-11.92h-12s0,5.25-.35,10.88A68.15,68.15,0,0,0,626.28,405.36Z" style="opacity:0.1"></path></g><path d="M615.36,393.44s-.13,20.53-2.3,23.91c-2.59,4-4.43,9.59,2.43,11.11s10.94,9.09,19.11,9.59,9-3,5.44-5.81-12.6-10.6-13.79-14.39,1.12-24.41,1.12-24.41Z" style="fill:none;stroke:#263238;stroke-linecap:round;stroke-linejoin:round;stroke-width:0.9325674165897908px"></path><path d="M640,432.24a101.75,101.75,0,0,1-9.48-8.53c-2.85,2.16-11.2.12-13.66-1.82-3-2.36-2.37-3.57-3.79-4.63l-.05.09c-2.59,4-4.43,9.59,2.43,11.11s10.94,9.09,19.11,9.59S643.58,435,640,432.24Z" style="fill:#bfbfbf;stroke:#263238;stroke-miterlimit:10;stroke-width:0.9325674165897908px"></path><path d="M569.23,386s-9,18.78-12.4,21.07c-4.11,2.74-8.19,7.15-2.56,11.08s6.13,12.39,13.4,15.88,9.54.54,7.49-3.31-7-14.39-6.45-18.31S580.33,390,580.33,390Z" style="fill:#fff"></path><g style="clip-path:url(#freepik--clip-path-3--inject-2)"><path d="M569.23,386s-3.22,6.74-6.53,12.63a35.26,35.26,0,0,0,9.12,6.53c3.45-6.68,8.51-15.13,8.51-15.13Z" style="opacity:0.1"></path></g><path d="M569.23,386s-9,18.78-12.4,21.07c-4.11,2.74-8.19,7.15-2.56,11.08s6.13,12.39,13.4,15.88,9.54.54,7.49-3.31-7-14.39-6.45-18.31S580.33,390,580.33,390Z" style="fill:none;stroke:#263238;stroke-linecap:round;stroke-linejoin:round;stroke-width:0.9325674165897908px"></path><path d="M575.16,430.67a93.22,93.22,0,0,1-5-11.34c-3.55.93-10.93-3.82-11.74-6.72-1.57-5.59-.64-4.15-1.49-5.65l-.08.06c-4.11,2.74-8.19,7.15-2.56,11.08s6.13,12.39,13.4,15.88S577.21,434.52,575.16,430.67Z" style="fill:#bfbfbf;stroke:#263238;stroke-miterlimit:10;stroke-width:0.9325674165897908px"></path><path d="M616.81,253.11s13.77,66,14.69,87.53-2.66,59.93-2.66,59.93l-15.29-1s-.1-11.35-1.63-27.15c-.91-9.39-3.77-20.35-3.45-31.43,0,0-14.53-43.09-14-62s0-24.35,0-24.35Z" style="fill:#263238;stroke:#263238;stroke-linecap:round;stroke-linejoin:round;stroke-width:0.9325674165897908px"></path><path d="M580,253.11s-14.28,11.8-6,35.59c3.26,9.44,15.84,52.62,15.84,52.62a60.24,60.24,0,0,0-8.7,13.05c-5.74,11.34-9.92,29-17,39.13l10.48,7.07s33.84-42.42,36-55.89-8-67.33-8-67.33l-3.25-21.89Z" style="fill:#263238;stroke:#263238;stroke-linecap:round;stroke-linejoin:round;stroke-width:0.9325674165897908px"></path><path d="M643.33,208.38a13.23,13.23,0,0,0-2.19-6.25,26.07,26.07,0,0,0,2.71-4.42c.76-1.83-.25-4.42-2.36-1.32s-4.43,5.36-3.59,9.23a10.79,10.79,0,0,1-1.28,7.27l4.87,3.81L651.2,209Z" style="fill:#fff;stroke:#263238;stroke-linecap:round;stroke-linejoin:round;stroke-width:0.9325674165897908px"></path><rect x="640.88" y="189.32" width="11.28" height="20.55" rx="1.41" transform="translate(-29.72 176.64) rotate(-15.21)" style="fill:#263238;stroke:#263238;stroke-linecap:round;stroke-linejoin:round;stroke-width:0.9325674165897908px"></rect><rect x="640.88" y="190.95" width="11.28" height="17.3" transform="translate(-29.72 176.64) rotate(-15.21)" style="fill:#F9F5F1;stroke:#263238;stroke-linecap:round;stroke-linejoin:round;stroke-width:0.9325674165897908px"></rect><path d="M647.51,195.58a2,2,0,1,0-3.88,1c.13.5.78,2.85,1,3.68l3.88-1.05C648.29,198.44,647.63,196,647.51,195.58Z" style="fill:#263238"></path><path d="M647.15,201.92a2,2,0,0,0,1.45-2.27l-3.85,1A2,2,0,0,0,647.15,201.92Z" style="fill:#263238"></path><path d="M650.77,204l-2.52.69-.52-1.9a3.12,3.12,0,0,0,1.88-3.72l-.28-1a.16.16,0,0,0-.2-.12l-.42.11a.16.16,0,0,0-.11.21.16.16,0,0,0,.2.12l.25-.07.23.85a2.78,2.78,0,1,1-5.37,1.46l-.24-.85.25-.06a.18.18,0,0,0,.12-.21.17.17,0,0,0-.21-.12l-.41.11a.17.17,0,0,0-.12.21l.28,1a3.12,3.12,0,0,0,3.5,2.26l.51,1.9-2.52.68a.34.34,0,0,0-.24.42l.09.33,6.36-1.73-.09-.33A.34.34,0,0,0,650.77,204Z" style="fill:#263238"></path><path d="M651.8,193.7c-1,.11-1.83,1.68-1.52,3.89s2.34-.19,2.46-.89S653.71,193.51,651.8,193.7Z" style="fill:#fff;stroke:#263238;stroke-linecap:round;stroke-linejoin:round;stroke-width:0.9325674165897908px"></path><path d="M654,197a1.78,1.78,0,0,0-1.77,2.14c.19,2.15.61,1.65.61,1.65a6.92,6.92,0,0,0,.53,2.58c.5.95,1.82-.49,1.82-1.35S655.05,196.64,654,197Z" style="fill:#fff;stroke:#263238;stroke-linecap:round;stroke-linejoin:round;stroke-width:0.9325674165897908px"></path><path d="M652.85,200.75s1.73-.51,2.14-1.77" style="fill:#fff;stroke:#263238;stroke-linecap:round;stroke-linejoin:round;stroke-width:0.9325674165897908px"></path><path d="M637.82,209.84a9.72,9.72,0,0,0,.08-4.22c-.84-3.87,1.47-6.14,3.59-9.23s3.12-.51,2.36,1.32a26.07,26.07,0,0,1-2.71,4.42,11.05,11.05,0,0,1,2.19,6.25c0,.73,0,2.91,0,2.91" style="fill:#fff;stroke:#263238;stroke-linecap:round;stroke-linejoin:round;stroke-width:0.9325674165897908px"></path><path d="M611,185.67c3.48-.73,4.55-1.62,4.55-1.62-2.61-10.51,6.75-45.86-22.75-47.49s-13,48.46-13,48.46l3.21.41-1.65-10.07,3.84,10.32c11.36,1.23,18.64,1,23.22.42a56.21,56.21,0,0,1-.19-13.7A87.06,87.06,0,0,0,611,185.67Z" style="fill:#263238"></path><path d="M592.79,137.19a7.17,7.17,0,0,0-8.84-1" style="fill:none;stroke:#263238;stroke-linecap:round;stroke-linejoin:round;stroke-width:0.9325674165897908px"></path><path d="M615.26,192.08h0v-.32C615.2,191.9,615.14,192,615.26,192.08Z" style="fill:#fff;stroke:#263238;stroke-linecap:round;stroke-linejoin:round;stroke-width:0.9325674165897908px"></path><path d="M636.62,212.89l-14,13,.26-19.48A17.45,17.45,0,0,0,615,191.54l.53,51.27c13.75.87,26-26.11,26-26.11A7.51,7.51,0,0,0,636.62,212.89Z" style="fill:#fff"></path><g style="clip-path:url(#freepik--clip-path-4--inject-2)"><path d="M620.47,236.52c-2.08.19-2.55-3.79-2.52-7.66a17.8,17.8,0,0,0-1.15,4.54c-.18,4.41-.18,8.78-.11,12.52,15.66-7.1,15.85-13.43,19.87-19.89C634,229.28,624.48,236.15,620.47,236.52Z" style="opacity:0.1"></path></g><path d="M636.62,212.89l-14,13,.26-19.48A17.45,17.45,0,0,0,615,191.54l.53,51.27c13.75.87,26-26.11,26-26.11A7.51,7.51,0,0,0,636.62,212.89Z" style="fill:none;stroke:#263238;stroke-linecap:round;stroke-linejoin:round;stroke-width:0.9325674165897908px"></path><polygon points="633.65 214.57 636.72 211.66 643.45 216.28 641.49 219.54 633.65 214.57" style="fill:#F9F5F1;stroke:#263238;stroke-linecap:round;stroke-linejoin:round;stroke-width:0.9325674165897908px"></polygon><path d="M620.53,216c-5.64,25-2.84,41.43-2.84,41.43s-13.61,9.65-42.22,1.47c0,0,5.2-12.93,3.8-22.79-.85-6.07-6.55-27.89-6.55-27.89s-2.7-9.54-1.46-17.24c2.39-1.55,7.51-3.42,16.56-4.08a8.66,8.66,0,0,0,.31-1.55,43.67,43.67,0,0,0,.19-7.66c-.13-3-.38-5.39-.38-5.39h10.92s.14,2.76.49,6c.19,1.91.46,4,.8,5.8a25.6,25.6,0,0,0,.65,2.67c10.9,1.64,15,4.48,15.79,6.95C620.3,204.86,621.73,210.66,620.53,216Z" style="fill:#fff;stroke:#263238;stroke-linecap:round;stroke-linejoin:round;stroke-width:0.9325674165897908px"></path><path d="M599.38,180.06c-.89,2-2,3.58-5.85,3.56-2.86,0-5.44-2.53-5.73-3.5.31-2.19,0-3-.13-5.48a63.9,63.9,0,0,1,11,.64A47.4,47.4,0,0,0,599.38,180.06Z" style="fill:#263238"></path><path d="M606.64,158.65c0-1.48,0-2.39,0-2.39-.81-3.88-5.61-4.08-7.82-4.07A17,17,0,0,1,592,151a9.77,9.77,0,0,0,3.39,4.22c-8.22-1.83-8.86-6.17-8.55-8.51-2.92,10.21-6.71,10.64-6.71,10.64s0,.91.17,2.38a4.18,4.18,0,0,0-3.23,4.43,4.14,4.14,0,0,0,4,4.18,3.4,3.4,0,0,0,.64-.09c1.74,6.76,5.31,14.11,12.62,13.82s10.29-7.91,11.47-14.79a3.55,3.55,0,0,0,.65,0,4.12,4.12,0,0,0,3.69-4.49A4.18,4.18,0,0,0,606.64,158.65Z" style="fill:#fff;stroke:#263238;stroke-linecap:round;stroke-linejoin:round;stroke-width:0.9325674165897908px"></path><path d="M592,170.1l1.26.91a.92.92,0,0,0,1.1,0l1.16-.89" style="fill:none;stroke:#263238;stroke-linecap:round;stroke-linejoin:round;stroke-width:0.9325674165897908px"></path><path d="M596.8,164.41s1.56-2.06,4.67-.61" style="fill:none;stroke:#263238;stroke-linecap:round;stroke-linejoin:round;stroke-width:0.9325674165897908px"></path><path d="M590,164.41s-1.55-2.06-4.67-.61" style="fill:none;stroke:#263238;stroke-linecap:round;stroke-linejoin:round;stroke-width:0.9325674165897908px"></path><path d="M596.86,173.73a5.23,5.23,0,0,1-6.15.25" style="fill:none;stroke:#263238;stroke-linecap:round;stroke-linejoin:round;stroke-width:0.9325674165897908px"></path><path d="M610.07,346.87a33.11,33.11,0,0,1-1.24,3.23" style="fill:none;stroke:#fff;stroke-linecap:round;stroke-linejoin:round;stroke-width:0.9325674165897908px"></path><path d="M595.47,274l3.26,2.92a16.82,16.82,0,0,1,5.41,10c2.79,17.75,7.27,36,6.72,55.28" style="fill:none;stroke:#fff;stroke-linecap:round;stroke-linejoin:round;stroke-width:0.9325674165897908px"></path><polyline points="607.81 274.52 602.64 281.91 603.29 281" style="fill:none;stroke:#fff;stroke-linecap:round;stroke-linejoin:round;stroke-width:0.9325674165897908px"></polyline><line x1="587.38" y1="244.87" x2="588.86" y2="246.39" style="fill:none;stroke:#263238;stroke-linecap:round;stroke-linejoin:round;stroke-width:0.9325674165897908px"></line><path d="M576.67,223.92a51.15,51.15,0,0,0,8.16,17.73" style="fill:none;stroke:#263238;stroke-linecap:round;stroke-linejoin:round;stroke-width:0.9325674165897908px"></path><rect x="575.93" y="156.29" width="1.11" height="3.95" transform="translate(-5.89 23.29) rotate(-2.3)" style="fill:#fff;stroke:#263238;stroke-linecap:round;stroke-linejoin:round;stroke-width:0.9325674165897908px"></rect><rect x="609.77" y="154.92" width="1.11" height="3.95" transform="translate(-5.82 24.7) rotate(-2.31)" style="fill:#fff;stroke:#263238;stroke-linecap:round;stroke-linejoin:round;stroke-width:0.9325674165897908px"></rect><path d="M592.63,138.38a18.22,18.22,0,0,0-17.48,18.26.66.66,0,0,0,.69.65l1.17,0a.66.66,0,0,0,.63-.67,15.73,15.73,0,0,1,31.4-1.26.65.65,0,0,0,.68.61l1.17,0a.65.65,0,0,0,.63-.7A18.2,18.2,0,0,0,592.63,138.38Z" style="fill:#F9F5F1;stroke:#263238;stroke-linecap:round;stroke-linejoin:round;stroke-width:0.9325674165897908px"></path><path d="M579,158.71h-.26a5.74,5.74,0,1,0,.47,11.48l.25,0Z" style="fill:#F9F5F1;stroke:#263238;stroke-linecap:round;stroke-linejoin:round;stroke-width:0.9325674165897908px"></path><path d="M580.55,164.38c.17,4.26.47,7-1,7.09s-2.09-2.69-2.26-7,.22-7,1.69-7.1S580.38,160.12,580.55,164.38Z" style="fill:#fff;stroke:#263238;stroke-linecap:round;stroke-linejoin:round;stroke-width:0.9325674165897908px"></path><path d="M607.9,157.55l.26,0a5.74,5.74,0,1,1,.46,11.48h-.26Z" style="fill:#F9F5F1;stroke:#263238;stroke-linecap:round;stroke-linejoin:round;stroke-width:0.9325674165897908px"></path><path d="M606.76,163.33c.17,4.26.1,7,1.57,7s1.86-2.85,1.69-7.11-.79-7-2.25-6.95S606.59,159.07,606.76,163.33Z" style="fill:#fff;stroke:#263238;stroke-linecap:round;stroke-linejoin:round;stroke-width:0.9325674165897908px"></path><path d="M583.17,160.63s3.81-3.15,7.42-.3" style="fill:none;stroke:#263238;stroke-linecap:round;stroke-linejoin:round;stroke-width:0.9325674165897908px"></path><path d="M604.08,160s-4-2.83-7.42.3" style="fill:none;stroke:#263238;stroke-linecap:round;stroke-linejoin:round;stroke-width:0.9325674165897908px"></path><path d="M586.38,185.51s2.28,5.72,10.74,7c0,0-3.38,7-8,4.25-5.53-3.28-6.59-10.09-6.59-10.09Z" style="fill:#F9F5F1;stroke:#263238;stroke-linecap:round;stroke-linejoin:round;stroke-width:0.9325674165897908px"></path><path d="M601.88,186.22a6.48,6.48,0,0,1-5.22,6.49s4.11,6.74,7.48,3,.75-8.83.75-8.83Z" style="fill:#F9F5F1;stroke:#263238;stroke-linecap:round;stroke-linejoin:round;stroke-width:0.9325674165897908px"></path><path d="M600,206.07a1,1,0,1,1-1-1A1,1,0,0,1,600,206.07Z" style="fill:#F9F5F1;stroke:#263238;stroke-linecap:round;stroke-linejoin:round;stroke-width:0.9325674165897908px"></path><path d="M601.36,225.76a1,1,0,1,1-1-1A1,1,0,0,1,601.36,225.76Z" style="fill:#F9F5F1;stroke:#263238;stroke-linecap:round;stroke-linejoin:round;stroke-width:0.9325674165897908px"></path><path d="M602.64,245.92a1,1,0,1,1-1-1A1,1,0,0,1,602.64,245.92Z" style="fill:#F9F5F1;stroke:#263238;stroke-linecap:round;stroke-linejoin:round;stroke-width:0.9325674165897908px"></path><rect x="486.44" y="111.85" width="206.02" height="7.05" rx="1.7" style="fill:#fff"></rect><line x1="690.42" y1="118.9" x2="488.48" y2="118.9" style="fill:none;stroke:#263238;stroke-linecap:round;stroke-linejoin:round;stroke-width:0.9325674165897908px"></line><line x1="488.48" y1="111.85" x2="690.42" y2="111.85" style="fill:none;stroke:#263238;stroke-linecap:round;stroke-linejoin:round;stroke-width:0.9325674165897908px"></line><path d="M551.34,159.29s-8.35-1.17-8.8,1.07-.2,5.83,1.24,7c2.72,2.22,2.22,6.37,2.22,6.37l7-.68.18-3.5a7.09,7.09,0,0,1,1.87-3c2.52-2.37,1.52-5,1.09-8.17s-2.52-1.76-2.69-.12a18.8,18.8,0,0,0,.36,4.36Z" style="fill:#fff;stroke:#263238;stroke-linecap:round;stroke-linejoin:round;stroke-width:0.9325674165897908px"></path><path d="M553.3,162.37s-2,.41-3.58,3.24" style="fill:#fff;stroke:#263238;stroke-linecap:round;stroke-linejoin:round;stroke-width:0.9325674165897908px"></path><path d="M553.3,163.11H543.18a4.4,4.4,0,0,1-3.64-1.74,3,3,0,0,1,0-3.48h0l5.06-7.43a4.67,4.67,0,0,1,7.32,0l5.07,7.43a3,3,0,0,1,0,3.48A4.38,4.38,0,0,1,553.3,163.11Zm-12-4.4a1.56,1.56,0,0,0,0,1.82,2.29,2.29,0,0,0,1.89.9H553.3a2.28,2.28,0,0,0,1.89-.9,1.55,1.55,0,0,0,0-1.82l-5.06-7.42a2.28,2.28,0,0,0-1.91-.92,2.25,2.25,0,0,0-1.9.92l-5.07,7.43Z" style="fill:#263238"></path><path d="M545.21,159.39c.52,2.64.2,3.58-1,3.44s-2.41-3.38-.75-4.12,3-1.31,3-1.31a3.89,3.89,0,0,1,3.48-.11c2.38-.83,2.8.9,2.8.9s1.72,5,.29,5.17-2.61-4.17-2.61-4.17,1.79,4.76.15,4.84-2.59-4.62-2.59-4.62,1.07,4.13-.48,4.27S545.21,159.39,545.21,159.39Z" style="fill:#fff;stroke:#263238;stroke-linecap:round;stroke-linejoin:round;stroke-width:0.9325674165897908px"></path><rect x="547.35" y="117.01" width="1.64" height="32.83" style="fill:#fff;stroke:#263238;stroke-linecap:round;stroke-linejoin:round;stroke-width:0.9325674165897908px"></rect><path d="M549.9,149.33l-1.07,1.57a.75.75,0,0,1-1.18,0l-1.06-1.57c-.26-.37.07-.83.58-.83h2.14C549.83,148.5,550.15,149,549.9,149.33Z" style="fill:#fff;stroke:#263238;stroke-linecap:round;stroke-linejoin:round;stroke-width:0.9325674165897908px"></path><rect x="546.5" y="138.31" width="3.49" height="9.02" rx="0.87" style="fill:#fff;stroke:#263238;stroke-linecap:round;stroke-linejoin:round;stroke-width:0.9325674165897908px"></rect><rect x="546.5" y="110.72" width="3.49" height="9.02" rx="0.87" style="fill:#fff;stroke:#263238;stroke-linecap:round;stroke-linejoin:round;stroke-width:0.9325674165897908px"></rect><path d="M529.51,163.11H519.39a4.4,4.4,0,0,1-3.64-1.74,3,3,0,0,1,0-3.48h0l5.06-7.43a4.68,4.68,0,0,1,7.33,0l5.06,7.43a3,3,0,0,1,0,3.48A4.38,4.38,0,0,1,529.51,163.11Zm-12-4.4a1.56,1.56,0,0,0,0,1.82,2.29,2.29,0,0,0,1.89.9h10.12a2.31,2.31,0,0,0,1.9-.9,1.56,1.56,0,0,0,0-1.82l-5.06-7.42a2.28,2.28,0,0,0-1.91-.92,2.25,2.25,0,0,0-1.9.92l-5.07,7.43Z" style="fill:#263238"></path><rect x="523.56" y="117.01" width="1.64" height="32.83" style="fill:#fff;stroke:#263238;stroke-linecap:round;stroke-linejoin:round;stroke-width:0.9325674165897908px"></rect><path d="M526.11,149.33,525,150.9a.75.75,0,0,1-1.18,0l-1.06-1.57c-.26-.37.07-.83.58-.83h2.14C526,148.5,526.36,149,526.11,149.33Z" style="fill:#fff;stroke:#263238;stroke-linecap:round;stroke-linejoin:round;stroke-width:0.9325674165897908px"></path><rect x="522.71" y="138.31" width="3.49" height="9.02" rx="0.87" style="fill:#fff;stroke:#263238;stroke-linecap:round;stroke-linejoin:round;stroke-width:0.9325674165897908px"></rect><rect x="522.71" y="110.72" width="3.49" height="9.02" rx="0.87" style="fill:#fff;stroke:#263238;stroke-linecap:round;stroke-linejoin:round;stroke-width:0.9325674165897908px"></rect><path d="M632.61,163.11H622.49a4.38,4.38,0,0,1-3.64-1.74,3,3,0,0,1,0-3.48h0l5.06-7.43a4.67,4.67,0,0,1,7.32,0l5.06,7.43a3,3,0,0,1,0,3.48A4.38,4.38,0,0,1,632.61,163.11Zm-12-4.4a1.55,1.55,0,0,0,0,1.82,2.28,2.28,0,0,0,1.89.9h10.12a2.28,2.28,0,0,0,1.89-.9,1.55,1.55,0,0,0,0-1.82l-5.06-7.42a2.44,2.44,0,0,0-3.82,0l-5.06,7.43Z" style="fill:#263238"></path><rect x="626.65" y="117.01" width="1.64" height="32.83" style="fill:#fff;stroke:#263238;stroke-linecap:round;stroke-linejoin:round;stroke-width:0.9325674165897908px"></rect><path d="M629.2,149.33l-1.06,1.57a.75.75,0,0,1-1.18,0l-1.06-1.57c-.26-.37.07-.83.58-.83h2.14C629.13,148.5,629.46,149,629.2,149.33Z" style="fill:#fff;stroke:#263238;stroke-linecap:round;stroke-linejoin:round;stroke-width:0.9325674165897908px"></path><rect x="625.81" y="138.31" width="3.49" height="9.02" rx="0.87" style="fill:#fff;stroke:#263238;stroke-linecap:round;stroke-linejoin:round;stroke-width:0.9325674165897908px"></rect><rect x="625.81" y="110.72" width="3.49" height="9.02" rx="0.87" style="fill:#fff;stroke:#263238;stroke-linecap:round;stroke-linejoin:round;stroke-width:0.9325674165897908px"></rect><path d="M655.28,163.11H645.16a4.4,4.4,0,0,1-3.64-1.74,3,3,0,0,1,0-3.48h0l5.06-7.43a4.68,4.68,0,0,1,7.33,0l5.06,7.43a3,3,0,0,1,0,3.48A4.38,4.38,0,0,1,655.28,163.11Zm-12-4.4a1.56,1.56,0,0,0,0,1.82,2.29,2.29,0,0,0,1.89.9h10.12a2.31,2.31,0,0,0,1.9-.9,1.56,1.56,0,0,0,0-1.82l-5.06-7.42a2.28,2.28,0,0,0-1.91-.92,2.25,2.25,0,0,0-1.9.92l-5.07,7.43Z" style="fill:#263238"></path><rect x="649.33" y="117.01" width="1.64" height="32.83" style="fill:#fff;stroke:#263238;stroke-linecap:round;stroke-linejoin:round;stroke-width:0.9325674165897908px"></rect><path d="M651.88,149.33l-1.07,1.57a.75.75,0,0,1-1.18,0l-1.06-1.57c-.26-.37.07-.83.58-.83h2.14C651.81,148.5,652.13,149,651.88,149.33Z" style="fill:#fff;stroke:#263238;stroke-linecap:round;stroke-linejoin:round;stroke-width:0.9325674165897908px"></path><rect x="648.48" y="138.31" width="3.49" height="9.02" rx="0.87" style="fill:#fff;stroke:#263238;stroke-linecap:round;stroke-linejoin:round;stroke-width:0.9325674165897908px"></rect><rect x="648.48" y="110.72" width="3.49" height="9.02" rx="0.87" style="fill:#fff;stroke:#263238;stroke-linecap:round;stroke-linejoin:round;stroke-width:0.9325674165897908px"></rect><polygon points="554.08 171.47 554.61 175.74 543.73 176.25 544.64 171.97 554.08 171.47" style="fill:#F9F5F1;stroke:#263238;stroke-linecap:round;stroke-linejoin:round;stroke-width:0.9325674165897908px"></polygon><path d="M572.53,207.36S553.64,224.73,549.28,225c-1.07.07-2,.74-2.9.13-2-1.36-4.89-4.24-4.47-15.94.22-6.4,4.09-33.07,4.09-33.07l7-.31,1.7,30c6-6.22,16.43-14.84,16.44-14.84h0C574.4,201.39,572.53,207.36,572.53,207.36Z" style="fill:#fff;stroke:#263238;stroke-linecap:round;stroke-linejoin:round;stroke-width:0.9325674165897908px"></path><path d="M620.17,231.51a15.41,15.41,0,0,1,2.63-5.74" style="fill:#fff;stroke:#263238;stroke-linecap:round;stroke-linejoin:round;stroke-width:0.9325674165897908px"></path><path d="M552.56,212.87c.73-.33,2.47-3.58,2.11-9.13" style="fill:none;stroke:#263238;stroke-linecap:round;stroke-linejoin:round;stroke-width:0.9325674165897908px"></path><path d="M559.27,141.63V129.68a2.19,2.19,0,0,1,2.18-2.18h18.76a2.19,2.19,0,0,1,2.18,2.18v11.95a2.18,2.18,0,0,1-2.18,2.18h-6.53l.52,4.55h-3.37v4.3l-4-7h3.27l-.34-1.84h-8.32A2.18,2.18,0,0,1,559.27,141.63Z" style="fill:#fff;stroke:#263238;stroke-linecap:round;stroke-linejoin:round;stroke-width:0.9325674165897908px"></path><line x1="575.53" y1="131.59" x2="562.85" y2="131.59" style="fill:none;stroke:#263238;stroke-linecap:round;stroke-linejoin:round;stroke-width:0.9325674165897908px"></line><line x1="578.81" y1="134.98" x2="562.85" y2="134.98" style="fill:none;stroke:#263238;stroke-linecap:round;stroke-linejoin:round;stroke-width:0.9325674165897908px"></line><line x1="576.35" y1="138.36" x2="562.85" y2="138.36" style="fill:none;stroke:#263238;stroke-linecap:round;stroke-linejoin:round;stroke-width:0.9325674165897908px"></line></g><g id="freepik--character-1--inject-2"><ellipse cx="142.04" cy="430.53" rx="46.69" ry="6.87" style="fill:#F9F5F1"></ellipse><circle cx="137.95" cy="239.74" r="81.31" style="fill:#F9F5F1"></circle><path d="M100.45,292.91s2.07,12-4.92,25.49h87.41s-4-6.29-8.19-25.49Z" style="fill:#fff;stroke:#263238;stroke-linecap:round;stroke-linejoin:round;stroke-width:0.8738100494572422px"></path><path d="M120.38,295.68a26.07,26.07,0,0,0-22,16c-.94,2.28-1.92,4.59-2.85,6.75-5.32,12.31-.29,30.22,13.31,30.22H171.2c12.33,0,15.7-15.61,12.75-27.37-1.9-7.56-5.73-15.15-12.27-20.47C162.94,293.66,137.4,294.32,120.38,295.68Z" style="fill:#263238;stroke:#263238;stroke-linecap:round;stroke-linejoin:round;stroke-width:0.8738100494572422px"></path><path d="M60.84,282.47s-11.18,6.76-11.55,10.44H63L68.45,289l-1.84,3.93h4.17s4.43-3.44,4.67-7.25L75,282.47l-8-3.56Z" style="fill:#fff;stroke:#263238;stroke-linecap:round;stroke-linejoin:round;stroke-width:0.8738100494572422px"></path><path d="M191.8,257.64s-1.79-11.77-5.72-28.72-11.61-18.28-11.61-18.28l-.07,0c-10-4.3-36-6.62-36-6.62h-1.2s-26.06,2.32-36,6.62l-.07,0S93.38,212,89.45,228.92s-5.73,28.72-5.73,28.72-7.1,1.92-19.88,18a42.49,42.49,0,0,0-5.09,8.26h0s9.82-3.23,16.7,1.72c0,0,22.54-9.56,23.67-19.64,0-.36.09-.76.14-1.19.64,15.3,1.19,28.08,1.19,28.08h74.62s.56-12.78,1.2-28.08c0,.43.09.83.13,1.19,1.14,10.08,26.09,21.38,26.09,21.38,6.84-10.52,16.77-4.71,16.77-4.71Z" style="fill:#fff"></path><g style="clip-path:url(#freepik--clip-path-5--inject-2)"><path d="M99.12,266c0-.3.08-.64.12-1l-1.63-35.41s-4.5.92-3.21,11.79,4,9,2.49,13.19-7.37-.61-9.31,3,10.84,2.84,5.56,12.14-17.69,16-17.69,16S98,276.1,99.12,266Z" style="opacity:0.30000000000000004"></path><g style="opacity:0.30000000000000004"><path d="M176.75,266c0-.3,2.94.22,0,0l.89-30.31s-.22,14.66,1.35,18.88,7.37-.61,9.3,3-10.84,2.84-5.55,12.14,17.68,16,17.68,16S177.89,276.1,176.75,266Z"></path></g><path d="M175.61,272.9c-.49,11.47-.86,20-.86,20H107.66c45,0,68-20,68-20Z" style="opacity:0.30000000000000004"></path></g><path d="M191.8,257.64s-1.79-11.77-5.72-28.72-11.61-18.28-11.61-18.28l-.07,0c-10-4.3-36-6.62-36-6.62h-1.2s-26.06,2.32-36,6.62l-.07,0S93.38,212,89.45,228.92s-5.73,28.72-5.73,28.72-7.1,1.92-19.88,18a42.49,42.49,0,0,0-5.09,8.26h0s9.82-3.23,16.7,1.72c0,0,22.54-9.56,23.67-19.64,0-.36.09-.76.14-1.19.64,15.3,1.19,28.08,1.19,28.08h74.62s.56-12.78,1.2-28.08c0,.43.09.83.13,1.19,1.14,10.08,26.09,21.38,26.09,21.38,6.84-10.52,16.77-4.71,16.77-4.71Z" style="fill:none;stroke:#263238;stroke-linecap:round;stroke-linejoin:round;stroke-width:0.8738100494572422px"></path><path d="M86.11,257.57A13.83,13.83,0,0,1,95.94,261" style="fill:none;stroke:#263238;stroke-linecap:round;stroke-linejoin:round;stroke-width:0.8738100494572422px"></path><path d="M93.14,230.65s4.62,1,5.68,23.46l-1.39-29.48" style="fill:none;stroke:#263238;stroke-linecap:round;stroke-linejoin:round;stroke-width:0.8738100494572422px"></path><line x1="98.88" y1="257.23" x2="99.09" y2="261.78" style="fill:none;stroke:#263238;stroke-linecap:round;stroke-linejoin:round;stroke-width:0.8738100494572422px"></line><path d="M189.42,257.57a13.83,13.83,0,0,0-9.83,3.38" style="fill:none;stroke:#263238;stroke-linecap:round;stroke-linejoin:round;stroke-width:0.8738100494572422px"></path><path d="M177.82,230.65q.13-3,.28-6" style="fill:none;stroke:#263238;stroke-linecap:round;stroke-linejoin:round;stroke-width:0.8738100494572422px"></path><path d="M151.77,205.64c-1.21,6.06-7.07,8.25-14.13,8.25s-12.9-2.18-14.13-8.22l.28,0a3.65,3.65,0,0,0,3.06-2.78A2.79,2.79,0,0,0,127,202v-7.11h21.6V202a3.53,3.53,0,0,0,.24,1.3h0a3.67,3.67,0,0,0,2.93,2.34Z" style="fill:#fff"></path><g style="clip-path:url(#freepik--clip-path-6--inject-2)"><path d="M148.42,200.21c-3.58,3.52-7.57,5.71-11.42,5.88-4,.18-8.64-3.1-10.53-6.32a3,3,0,0,0,.11-.86v-2.18l21.6.23v1.95C148.18,199.37,148.73,199.91,148.42,200.21Z" style="fill:#263238"></path></g><path d="M151.77,205.64c-1.21,6.06-7.07,8.25-14.13,8.25s-12.9-2.18-14.13-8.22l.28,0a3.65,3.65,0,0,0,3.06-2.78A2.79,2.79,0,0,0,127,202v-7.11h21.6V202a3.53,3.53,0,0,0,.24,1.3h0a3.67,3.67,0,0,0,2.93,2.34Z" style="fill:none;stroke:#263238;stroke-linecap:round;stroke-linejoin:round;stroke-width:0.8738100494572422px"></path><path d="M121.86,179.62s-7.49-8.47-6.51-20.14,10.56-11.67,10.56-11.67,11.55-10.19,24.44-3.81,12,28.5,2.46,34Z" style="fill:#263238"></path><path d="M154.88,173.92c.1-1.94.09-3.14.09-3.14-.86-5.16-7.17-5.68-10.07-5.77-12.15-.41-15.35-7.86-15.35-7.86-7.37-2.21-9.46,13.63-9.46,13.63s0,1.2.1,3.14a5.52,5.52,0,0,0-4.48,5.66c0,3.16,2.28,5.71,5.1,5.71a4.8,4.8,0,0,0,.85-.08l1.32,7.44c.25,1.67,1.82,5.62,3.23,6.56,3,2,7.75,4.85,11.32,4.85,3.08,0,7.4-2.54,10.59-4.27,1.78-1,3.74-4.83,3.91-6.84l.83-7.52a13.54,13.54,0,0,0,1.4-.14c2.81,0,5.1-2.55,5.1-5.71A5.52,5.52,0,0,0,154.88,173.92Z" style="fill:#fff;stroke:#263238;stroke-linecap:round;stroke-linejoin:round;stroke-width:0.8738100494572422px"></path><rect x="116.35" y="169.12" width="1.32" height="4.7" style="fill:#fff;stroke:#263238;stroke-linecap:round;stroke-linejoin:round;stroke-width:0.8738100494572422px"></rect><rect x="156.68" y="169.12" width="1.32" height="4.7" style="fill:#fff;stroke:#263238;stroke-linecap:round;stroke-linejoin:round;stroke-width:0.8738100494572422px"></rect><path d="M137.17,148.59a21.68,21.68,0,0,0-21.67,20.89.77.77,0,0,0,.78.8h1.4a.78.78,0,0,0,.78-.76,18.73,18.73,0,0,1,37.42,0,.79.79,0,0,0,.79.76h1.39a.78.78,0,0,0,.79-.8A21.69,21.69,0,0,0,137.17,148.59Z" style="fill:#fff;stroke:#263238;stroke-linecap:round;stroke-linejoin:round;stroke-width:0.8738100494572422px"></path><path d="M119.92,172.13l-.3,0a6.85,6.85,0,0,0,0,13.69l.3,0Z" style="fill:#263238;stroke:#263238;stroke-miterlimit:10;stroke-width:0.8738100494572422px"></path><path d="M121.55,179c0,5.07.22,8.37-1.53,8.37s-2.35-3.3-2.35-8.37.6-8.38,2.35-8.38S121.55,173.88,121.55,179Z" style="fill:#fff;stroke:#263238;stroke-linecap:round;stroke-linejoin:round;stroke-width:0.8738100494572422px"></path><path d="M154.43,172.13l.3,0a6.85,6.85,0,0,1,0,13.69l-.3,0Z" style="fill:#263238;stroke:#263238;stroke-miterlimit:10;stroke-width:0.8738100494572422px"></path><path d="M152.79,179c0,5.07-.21,8.37,1.54,8.37s2.35-3.3,2.35-8.37-.6-8.38-2.35-8.38S152.79,173.88,152.79,179Z" style="fill:#fff;stroke:#263238;stroke-linecap:round;stroke-linejoin:round;stroke-width:0.8738100494572422px"></path><path d="M125.47,180.23s2.85,3.51,8.19.74" style="fill:none;stroke:#263238;stroke-linecap:round;stroke-linejoin:round;stroke-width:0.8738100494572422px"></path><path d="M133.66,193.88a6.9,6.9,0,0,0,8.11,0" style="fill:none;stroke:#263238;stroke-linecap:round;stroke-linejoin:round;stroke-width:0.75px"></path><path d="M124.68,175.52s5.17-3.94,9.77,0" style="fill:none;stroke:#263238;stroke-linecap:round;stroke-linejoin:round;stroke-width:0.8738100494572422px"></path><path d="M150.07,175.65s-5.17-4-9.77,0" style="fill:none;stroke:#263238;stroke-linecap:round;stroke-linejoin:round;stroke-width:0.8738100494572422px"></path><path d="M141.47,188.36s.46,2.56-4.23,2.5c-1.15,0-3.24-.82-3.31-2.5" style="fill:none;stroke:#263238;stroke-linecap:round;stroke-linejoin:round;stroke-width:0.75px"></path><path d="M126.59,181.16c.43.85,1.4,1.83,3.57,1.88s2.55-.81,2.59-1.65A6.56,6.56,0,0,1,126.59,181.16Z" style="fill:#263238"></path><path d="M149.32,180.23s-2.85,3.51-8.19.74" style="fill:none;stroke:#263238;stroke-linecap:round;stroke-linejoin:round;stroke-width:0.8738100494572422px"></path><path d="M148.2,181.16c-.43.85-1.4,1.83-3.57,1.88s-2.55-.81-2.59-1.65A6.55,6.55,0,0,0,148.2,181.16Z" style="fill:#263238"></path><path d="M128.37,142.94s-2.63,1.47-2.34,5.65c0,0-.92-2.82-4.3-1.59" style="fill:none;stroke:#263238;stroke-linecap:round;stroke-linejoin:round;stroke-width:0.8738100494572422px"></path><path d="M137.76,217a16.72,16.72,0,0,0,15.74-11.09c-.91-.14-1.81-.26-2.68-.38a15.32,15.32,0,0,1-26.11,0c-.87.12-1.77.24-2.68.38A16.72,16.72,0,0,0,137.76,217Z" style="fill:#263238;stroke:#263238;stroke-linecap:round;stroke-linejoin:round;stroke-width:0.8738100494572422px"></path><path d="M176.27,264.83q.66-14.62,1.33-29.25" style="fill:none;stroke:#263238;stroke-linecap:round;stroke-linejoin:round;stroke-width:0.8738100494572422px"></path><g style="opacity:0.30000000000000004"><polygon points="99.6 272.91 99.6 272.91 99.6 272.9 99.6 272.91"></polygon></g><path d="M176.6,165.21V154.44a2,2,0,0,0-2-2H157.74a2,2,0,0,0-2,2v10.77a2,2,0,0,0,2,2h5.88l-.47,4.1h3v3.87l3.59-6.31h-2.95l.31-1.66h7.49A2,2,0,0,0,176.6,165.21Z" style="fill:#fff;stroke:#263238;stroke-linecap:round;stroke-linejoin:round;stroke-width:0.8738100494572422px"></path><line x1="159" y1="156.17" x2="170.43" y2="156.17" style="fill:none;stroke:#263238;stroke-linecap:round;stroke-linejoin:round;stroke-width:0.8738100494572422px"></line><line x1="159" y1="159.22" x2="173.37" y2="159.22" style="fill:none;stroke:#263238;stroke-linecap:round;stroke-linejoin:round;stroke-width:0.8738100494572422px"></line><line x1="159" y1="162.27" x2="171.16" y2="162.27" style="fill:none;stroke:#263238;stroke-linecap:round;stroke-linejoin:round;stroke-width:0.8738100494572422px"></line><path d="M228.4,287.7c0,3.18-5,5.17-11.14,5.17s-11.14-2-11.14-5.17,5-5.77,11.14-5.77S228.4,284.51,228.4,287.7Z" style="fill:#fff;stroke:#263238;stroke-linecap:round;stroke-linejoin:round;stroke-width:0.8738100494572422px"></path><path d="M210.05,291.72c.3-.07.54-1.75-2.17-3-1.88-.86-1.93-1.77-.85-2.89s2.92-2.06,4.34-1.65c2.31.66,3.84,5.47,4.87,4.43,1.55-.4-.32-4.81-3.09-6.26,5,1.24,5.24,7,7.54,6.54,1.76-.34-1.28-6.06-3.91-7.75a11.7,11.7,0,0,1,4.3,3.43c1.67,2.43,1.86,3.25,3,2.9,1.48-.47-2.05-5.81-2.49-6.39,2.22.88,2.64,2.74,3.32,3.49s1,2,1.94,1.51.07-2.23-.56-3.25c-3-4.85-8-5.66-12.76-5.06-3.76.48-8.08,2.06-10.37,5.06a4.69,4.69,0,0,0-.32,5.3C203.64,289.82,206.5,292.52,210.05,291.72Z" style="fill:#fff;stroke:#263238;stroke-linecap:round;stroke-linejoin:round;stroke-width:0.8738100494572422px"></path><rect x="46.3" y="292.91" width="186.01" height="3.57" rx="0.99" style="fill:#bfbfbf;stroke:#263238;stroke-miterlimit:10;stroke-width:0.8738100494572422px"></rect><path d="M52.69,292.91,39.15,251.76a1.09,1.09,0,0,1,1-1.42H82.92l15.23,42.57Z" style="fill:#263238"></path><path d="M84.09,250.34l14,40.18h37.5v1.41a1,1,0,0,1-1,1H95.69L82.22,252a1.23,1.23,0,0,1,1.16-1.61Z" style="fill:#fff;stroke:#263238;stroke-linecap:round;stroke-linejoin:round;stroke-width:0.8738100494572422px"></path><path d="M64.23,271.63a3.8,3.8,0,0,0-.94-1.87A2.15,2.15,0,0,1,65,269a3.47,3.47,0,0,1,3.23,2.67,2.09,2.09,0,0,1-2.1,2.67,3.27,3.27,0,0,1-2.08-.81A2.71,2.71,0,0,0,64.23,271.63Z" style="fill:#fff"></path><path d="M150.88,292.91h13.67a14.15,14.15,0,0,0,5.79-11.61v-6.43a1.86,1.86,0,0,0-1.86-1.86H147a1.85,1.85,0,0,0-1.85,1.86v6.43A14.14,14.14,0,0,0,150.88,292.91Z" style="fill:#fff;stroke:#263238;stroke-linecap:round;stroke-linejoin:round;stroke-width:0.8738100494572422px"></path><path d="M174.22,275.75a3.94,3.94,0,0,0-3.88-.18v2.32a2.46,2.46,0,0,1,1.71.34c1.93,1.12,1.52,3.41.17,5.74a6.22,6.22,0,0,1-3,3,14.12,14.12,0,0,1-1.49,2.73c2.57.56,4.92-1.62,6.76-4.8C176.65,281.16,177.3,277.53,174.22,275.75Z" style="fill:#fff;stroke:#263238;stroke-linecap:round;stroke-linejoin:round;stroke-width:0.8738100494572422px"></path><path d="M158,262.88a16.61,16.61,0,0,0,.73-5c0-9.4-8.84-10.51-8.84-21.19" style="fill:none;stroke:#263238;stroke-linecap:round;stroke-linejoin:round;stroke-width:0.8738100494572422px"></path><path d="M151.73,271.17a14.06,14.06,0,0,0,4.07-3.85" style="fill:none;stroke:#263238;stroke-linecap:round;stroke-linejoin:round;stroke-width:0.8738100494572422px"></path><path d="M157.23,245.65a5.18,5.18,0,0,1-.59-3" style="fill:none;stroke:#263238;stroke-linecap:round;stroke-linejoin:round;stroke-width:0.8738100494572422px"></path><path d="M164.12,258.85c-.45-2.94-2.14-5.7-3.81-8.21" style="fill:none;stroke:#263238;stroke-linecap:round;stroke-linejoin:round;stroke-width:0.8738100494572422px"></path><path d="M159,271.28s2.92-1.23,4.52-6.78" style="fill:none;stroke:#263238;stroke-linecap:round;stroke-linejoin:round;stroke-width:0.8738100494572422px"></path><rect x="92.08" y="348.62" width="94.68" height="69.3" rx="9.9" style="fill:#fff;stroke:#263238;stroke-miterlimit:10;stroke-width:0.8738100494572422px"></rect><path d="M115.75,396.3l1.13,19.77.13.17a9.5,9.5,0,0,0,15.36-.17h0l.42-19.77Z" style="fill:#fff;stroke:#263238;stroke-linecap:round;stroke-linejoin:round;stroke-width:0.8738100494572422px"></path><path d="M136.53,435.39h0a66.39,66.39,0,0,1-22.93,0h0a10.92,10.92,0,0,1-1.81-2.36,9.93,9.93,0,0,1-.37-9l4.57-8.15,18.11.2,4.08,7.44a10,10,0,0,1-1.07,11.26A8.07,8.07,0,0,1,136.53,435.39Z" style="fill:#bfbfbf;stroke:#263238;stroke-miterlimit:10;stroke-width:0.8738100494572422px"></path><path d="M132.08,425.13a18.5,18.5,0,0,1,3.19,1.8" style="fill:#bfbfbf;stroke:#263238;stroke-miterlimit:10;stroke-width:0.8738100494572422px"></path><path d="M115,426.93a18.2,18.2,0,0,1,13.74-2.85" style="fill:#bfbfbf;stroke:#263238;stroke-miterlimit:10;stroke-width:0.8738100494572422px"></path><path d="M106,314.71l8,91.68h20.69s2.05-56,3.35-92.36A16,16,0,0,0,122,297.4h0A16,16,0,0,0,106,314.71Z" style="fill:#263238"></path><path d="M126.59,298.05a16.06,16.06,0,0,0-4.64-.65h0A16,16,0,0,0,106,314.71l2.84,33.91" style="fill:none;stroke:#fff;stroke-linecap:round;stroke-linejoin:round;stroke-width:0.8738100494572422px"></path><path d="M135.23,304.3a16.77,16.77,0,0,0-2.87-3.14s-1.25-1-1.81-1.32" style="fill:none;stroke:#fff;stroke-linecap:round;stroke-linejoin:round;stroke-width:0.8738100494572422px"></path><path d="M136.67,348.62c.41-11.35,1.05-24.63,1.4-34.59a16,16,0,0,0-1.4-7.19" style="fill:none;stroke:#fff;stroke-linecap:round;stroke-linejoin:round;stroke-width:0.8738100494572422px"></path><path d="M149.41,396.3l1.13,19.77.13.17a9.5,9.5,0,0,0,15.36-.17h0l.42-19.77Z" style="fill:#fff;stroke:#263238;stroke-linecap:round;stroke-linejoin:round;stroke-width:0.8738100494572422px"></path><path d="M170.19,435.39h0a66.39,66.39,0,0,1-22.93,0h0a10.72,10.72,0,0,1-1.8-2.36,9.9,9.9,0,0,1-.38-9l4.58-8.15,18.1.2,4.08,7.44a10,10,0,0,1-1.07,11.26A8.07,8.07,0,0,1,170.19,435.39Z" style="fill:#bfbfbf;stroke:#263238;stroke-miterlimit:10;stroke-width:0.8738100494572422px"></path><path d="M165.74,425.13a18.13,18.13,0,0,1,3.19,1.8" style="fill:#bfbfbf;stroke:#263238;stroke-miterlimit:10;stroke-width:0.8738100494572422px"></path><path d="M148.68,426.93a18.21,18.21,0,0,1,13.74-2.85" style="fill:#bfbfbf;stroke:#263238;stroke-miterlimit:10;stroke-width:0.8738100494572422px"></path><path d="M139.69,314.71l8,91.68h20.69s2.05-56,3.36-92.36a16.05,16.05,0,0,0-16.12-16.63h0A16,16,0,0,0,139.69,314.71Z" style="fill:#263238"></path><path d="M162.22,298.78a16,16,0,0,0-6.6-1.38h0a16,16,0,0,0-15.93,17.31l3,33.91" style="fill:none;stroke:#fff;stroke-linecap:round;stroke-linejoin:round;stroke-width:0.8738100494572422px"></path><path d="M168.89,304.3a16.17,16.17,0,0,0-2.87-3.14" style="fill:none;stroke:#fff;stroke-linecap:round;stroke-linejoin:round;stroke-width:0.8738100494572422px"></path><path d="M171.2,348.62c.41-11.35.18-24.63.54-34.59a16.05,16.05,0,0,0-1.08-6.41" style="fill:none;stroke:#fff;stroke-linecap:round;stroke-linejoin:round;stroke-width:0.8738100494572422px"></path></g><g id="freepik--Graphics--inject-2"><path d="M416.25,158.67V116a7.78,7.78,0,0,0-7.78-7.78H341.53a7.78,7.78,0,0,0-7.78,7.78v42.67a7.78,7.78,0,0,0,7.78,7.78h23.31L363,182.69H375V198l14.24-25H377.56l1.23-6.56h29.68A7.78,7.78,0,0,0,416.25,158.67Z" style="fill:#fff;stroke:#263238;stroke-linecap:round;stroke-linejoin:round;stroke-width:1.0254712104797363px"></path><line x1="346.53" y1="122.82" x2="391.79" y2="122.82" style="fill:none;stroke:#263238;stroke-linecap:round;stroke-linejoin:round;stroke-width:1.0254712104797363px"></line><line x1="346.53" y1="134.91" x2="403.47" y2="134.91" style="fill:none;stroke:#263238;stroke-linecap:round;stroke-linejoin:round;stroke-width:1.0254712104797363px"></line><line x1="346.53" y1="147" x2="394.71" y2="147" style="fill:none;stroke:#263238;stroke-linecap:round;stroke-linejoin:round;stroke-width:1.0254712104797363px"></line><polygon points="467.38 341.38 507.82 354.86 497.79 364.9 516.51 383.62 476.07 370.14 486.1 360.1 467.38 341.38" style="fill:#F9F5F1;stroke:#263238;stroke-linecap:round;stroke-linejoin:round;stroke-width:1.0254712104797363px"></polygon><polygon points="282.62 341.38 242.18 354.86 252.21 364.9 233.49 383.62 273.93 370.14 263.9 360.1 282.62 341.38" style="fill:#F9F5F1;stroke:#263238;stroke-linecap:round;stroke-linejoin:round;stroke-width:1.0254712104797363px"></polygon><polygon points="373.87 32.14 354.8 70.28 369 70.28 369 96.76 388.06 58.62 373.87 58.62 373.87 32.14" style="fill:#F9F5F1;stroke:#263238;stroke-linecap:round;stroke-linejoin:round;stroke-width:1.0254712104797363px"></polygon></g></svg>